<svg width="32" height="32" viewBox="0 0 32 32" fill="none" xmlns="http://www.w3.org/2000/svg">
<rect width="32" height="32" fill="#F1EDDF"/>
<line x1="16.75" y1="14" x2="29.3972" y2="14" stroke="#3A3335" stroke-width="1.5" stroke-linecap="round"/>
<circle cx="12.5" cy="14" r="1.5" fill="#3A3335"/>
<line x1="16.75" y1="18.5" x2="29.3972" y2="18.5" stroke="#3A3335" stroke-width="1.5" stroke-linecap="round"/>
<circle cx="12.5" cy="18.5" r="1.5" fill="#3A3335"/>
<line x1="16.75" y1="23" x2="29.3972" y2="23" stroke="#3A3335" stroke-width="1.5" stroke-linecap="round"/>
<circle cx="12.5" cy="23" r="1.5" fill="#3A3335"/>
<path fill-rule="evenodd" clip-rule="evenodd" d="M6.37596 1.58397C6.51506 1.37533 6.74924 1.25 7 1.25H7.80278H21.1972H22C22.2508 1.25 22.4849 1.37533 22.624 1.58397L23.0681 2.25L23.0693 2.25192L23.0707 2.25392L24.4014 4.25H26C26.4142 4.25 26.75 4.58579 26.75 5V8C26.75 8.41421 26.4142 8.75 26 8.75H23.6849L23.5489 10.2458L23.5486 10.249L23.3895 12H21.8833L22.0548 10.1132C22.1213 9.38115 21.545 8.75 20.8099 8.75H8.19007C7.45503 8.75 6.87865 9.38115 6.9452 10.1132L8.58156 28.1132L8.58163 28.1139C8.64052 28.7574 9.18018 29.25 9.82643 29.25H19.1736C19.8201 29.25 20.3599 28.757 20.4184 28.1132L20.7015 25H22.2076L21.9123 28.249L21.9121 28.2508L21.7469 30.0679C21.7118 30.4542 21.3879 30.75 21 30.75H19.1736H9.82643H8C7.6121 30.75 7.2882 30.4542 7.25308 30.0679L7.08772 28.249L5.45136 10.249L5.45131 10.2484L5.31509 8.75H3C2.58579 8.75 2.25 8.41421 2.25 8V5C2.25 4.58579 2.58579 4.25 3 4.25H4.59861L5.93066 2.25192L5.93088 2.2516L6.37596 1.58397ZM23 7.25H20.8099H8.19007H6H3.75V5.75H5H7.80278H21.1972H24H25.25V7.25H23ZM21.1972 4.25C21.7962 4.25 22.1535 3.58239 21.8213 3.08397C21.6822 2.87533 21.448 2.75 21.1972 2.75H7.80278C7.55216 2.75 7.31811 2.87518 7.17898 3.0836L7.17874 3.08397L7.17848 3.08436C6.84664 3.58273 7.20391 4.25 7.80278 4.25H21.1972Z" fill="#3A3335"/>
</svg>
